<?xml version="1.0" standalone="no"?>
<!DOCTYPE svg PUBLIC "-//W3C//DTD SVG 20010904//EN"
 "http://www.w3.org/TR/2001/REC-SVG-20010904/DTD/svg10.dtd">
<svg version="1.0" xmlns="http://www.w3.org/2000/svg"
 width="500.000000pt" height="500.000000pt" viewBox="0 0 500.000000 500.000000"
 preserveAspectRatio="xMidYMid meet">
<metadata>
Created by potrace 1.14, written by Peter Selinger 2001-2017
</metadata>
<g transform="translate(0.000000,500.000000) scale(0.100000,-0.100000)"
fill="#000000" stroke="none">
<path d="M1677 2666 c-52 -19 -73 -40 -93 -92 -21 -56 -15 -144 12 -181 41
-54 70 -68 144 -68 78 0 110 17 145 76 27 47 27 152 -1 199 -37 65 -131 94
-207 66z m108 -81 c21 -20 25 -34 25 -79 0 -93 -30 -128 -96 -112 -58 15 -71
147 -19 194 34 29 60 28 90 -3z"/>
<path d="M3140 2670 c-76 -19 -106 -107 -53 -156 14 -13 53 -32 86 -42 33 -10
65 -25 71 -35 16 -25 -4 -51 -42 -55 -29 -3 -39 3 -65 40 -9 14 -20 16 -49 12
-44 -8 -48 -22 -18 -65 50 -69 210 -62 253 10 44 75 1 144 -103 166 -19 4 -45
13 -58 21 -18 12 -20 18 -12 34 14 26 54 26 80 0 20 -20 84 -28 93 -12 8 13
-12 51 -36 66 -29 20 -101 28 -147 16z"/>
<path d="M3940 2658 c-61 -32 -85 -75 -85 -158 0 -73 20 -118 68 -154 41 -30
163 -30 203 0 50 37 66 68 71 135 4 53 1 72 -19 109 -27 53 -90 90 -153 90
-22 0 -61 -10 -85 -22z m134 -77 c40 -44 27 -162 -19 -183 -39 -17 -74 -2 -92
40 -18 43 -11 116 14 144 22 24 75 23 97 -1z"/>
<path d="M110 2500 l0 -170 50 0 50 0 0 43 c0 35 6 49 29 71 l30 28 35 -71 36
-71 59 0 60 0 -65 106 -65 105 62 65 62 64 -64 -1 -64 0 -55 -66 -55 -66 -3
66 -3 67 -49 0 -50 0 0 -170z"/>
<path d="M510 2500 l0 -170 135 0 135 0 0 35 0 35 -90 0 -90 0 0 30 0 30 80 0
80 0 0 35 0 34 -77 3 -78 3 0 30 0 30 88 3 87 3 0 34 0 35 -135 0 -135 0 0
-170z"/>
<path d="M820 2665 c0 -3 27 -46 60 -95 l60 -89 0 -76 0 -75 50 0 50 0 0 73 0
73 64 95 65 94 -41 3 c-56 4 -61 1 -98 -62 -17 -31 -35 -54 -40 -51 -5 3 -23
30 -40 60 -31 55 -32 55 -81 55 -27 0 -49 -2 -49 -5z"/>
<path d="M1220 2499 l0 -171 118 4 c134 6 147 10 167 49 22 42 18 68 -16 99
l-30 29 20 20 c22 22 28 70 11 101 -15 28 -65 40 -171 40 l-99 0 0 -171z m181
85 c21 -26 -1 -49 -47 -49 -40 0 -53 17 -40 51 7 19 70 18 87 -2z m17 -136 c7
-7 8 -17 1 -30 -7 -14 -21 -18 -59 -18 -49 0 -50 1 -50 30 0 29 1 30 48 30 26
0 53 -5 60 -12z"/>
<path d="M2030 2613 c-33 -88 -100 -274 -100 -279 0 -2 20 -4 46 -4 41 0 46 3
55 30 11 29 13 30 71 30 57 0 60 -1 71 -30 11 -28 15 -30 60 -30 43 0 48 2 42
18 -4 9 -25 67 -46 127 -22 61 -46 129 -55 153 l-16 42 -53 0 -54 0 -21 -57z
m89 -55 c5 -13 12 -38 16 -55 7 -33 6 -33 -33 -33 l-39 0 15 55 c16 59 28 68
41 33z"/>
<path d="M2330 2501 l0 -171 45 0 45 0 0 65 c0 62 1 65 25 65 19 0 31 -13 60
-65 l37 -65 54 0 55 0 -28 51 c-15 28 -39 61 -52 75 -13 13 -18 24 -12 24 7 0
23 11 36 25 34 33 34 93 1 132 -24 27 -27 28 -145 32 l-121 3 0 -171z m191 83
c22 -27 -1 -49 -52 -49 -45 0 -59 15 -45 51 8 20 80 19 97 -2z"/>
<path d="M2700 2500 l0 -172 103 4 c115 4 144 16 174 71 26 47 23 153 -4 198
-34 54 -57 63 -170 67 l-103 4 0 -172z m163 89 c32 -17 37 -28 37 -89 0 -74
-18 -100 -71 -100 l-39 0 0 93 c0 52 3 97 7 100 10 11 42 8 66 -4z"/>
<path d="M3560 2500 l0 -170 130 0 130 0 0 40 0 40 -80 0 -80 0 0 130 0 130
-50 0 -50 0 0 -170z"/>
<path d="M4210 2664 c0 -4 28 -81 61 -171 l62 -163 56 0 57 0 36 103 c20 56
47 132 62 170 l25 67 -52 0 -52 0 -34 -115 c-19 -64 -37 -118 -41 -120 -4 -2
-22 48 -41 113 l-35 117 -52 3 c-29 2 -52 0 -52 -4z"/>
<path d="M4610 2500 l0 -170 140 0 140 0 0 35 0 35 -90 0 -90 0 0 30 0 30 81
0 80 0 -3 38 -3 37 -77 3 c-75 3 -78 4 -78 27 0 25 1 25 85 25 l85 0 0 40 0
40 -135 0 -135 0 0 -170z"/>
<path d="M3390 2375 l0 -45 50 0 50 0 0 45 0 45 -50 0 -50 0 0 -45z"/>
</g>
</svg>
